<mxfile host="app.diagrams.net" agent="Mozilla/5.0 (Windows NT 10.0; Win64; x64) AppleWebKit/537.36 (KHTML, like Gecko) Chrome/135.0.0.0 Safari/537.36 Edg/135.0.0.0" version="26.2.14">
  <diagram name="Page-1" id="ODt14_xDkLT6aXwcsXu8">
    <mxGraphModel dx="846" dy="425" grid="1" gridSize="10" guides="1" tooltips="1" connect="1" arrows="1" fold="1" page="1" pageScale="1" pageWidth="850" pageHeight="1100" math="0" shadow="0">
      <root>
        <mxCell id="0" />
        <mxCell id="1" parent="0" />
        <mxCell id="gId2gZL5uGRJnGq2d9ph-7" style="edgeStyle=orthogonalEdgeStyle;rounded=0;orthogonalLoop=1;jettySize=auto;html=1;exitX=1;exitY=0.75;exitDx=0;exitDy=0;entryX=0;entryY=0.75;entryDx=0;entryDy=0;" edge="1" parent="1" source="gId2gZL5uGRJnGq2d9ph-1" target="gId2gZL5uGRJnGq2d9ph-2">
          <mxGeometry relative="1" as="geometry" />
        </mxCell>
        <mxCell id="gId2gZL5uGRJnGq2d9ph-1" value="UI" style="rounded=0;whiteSpace=wrap;html=1;" vertex="1" parent="1">
          <mxGeometry x="30" y="100" width="80" height="60" as="geometry" />
        </mxCell>
        <mxCell id="gId2gZL5uGRJnGq2d9ph-11" style="edgeStyle=orthogonalEdgeStyle;rounded=0;orthogonalLoop=1;jettySize=auto;html=1;exitX=0.25;exitY=1;exitDx=0;exitDy=0;entryX=0.25;entryY=0;entryDx=0;entryDy=0;" edge="1" parent="1" source="gId2gZL5uGRJnGq2d9ph-2" target="gId2gZL5uGRJnGq2d9ph-10">
          <mxGeometry relative="1" as="geometry" />
        </mxCell>
        <mxCell id="gId2gZL5uGRJnGq2d9ph-2" value="API" style="rounded=0;whiteSpace=wrap;html=1;" vertex="1" parent="1">
          <mxGeometry x="160" y="100" width="120" height="60" as="geometry" />
        </mxCell>
        <mxCell id="gId2gZL5uGRJnGq2d9ph-9" style="edgeStyle=orthogonalEdgeStyle;rounded=0;orthogonalLoop=1;jettySize=auto;html=1;exitX=0;exitY=1;exitDx=0;exitDy=-15;exitPerimeter=0;entryX=1;entryY=1;entryDx=0;entryDy=0;" edge="1" parent="1" source="gId2gZL5uGRJnGq2d9ph-4" target="gId2gZL5uGRJnGq2d9ph-2">
          <mxGeometry relative="1" as="geometry" />
        </mxCell>
        <mxCell id="gId2gZL5uGRJnGq2d9ph-4" value="Strage" style="shape=cylinder3;whiteSpace=wrap;html=1;boundedLbl=1;backgroundOutline=1;size=15;" vertex="1" parent="1">
          <mxGeometry x="410" y="90" width="60" height="80" as="geometry" />
        </mxCell>
        <mxCell id="gId2gZL5uGRJnGq2d9ph-8" style="edgeStyle=orthogonalEdgeStyle;rounded=0;orthogonalLoop=1;jettySize=auto;html=1;exitX=1.008;exitY=0.4;exitDx=0;exitDy=0;entryX=0;entryY=0;entryDx=0;entryDy=27.5;entryPerimeter=0;exitPerimeter=0;" edge="1" parent="1" source="gId2gZL5uGRJnGq2d9ph-2" target="gId2gZL5uGRJnGq2d9ph-4">
          <mxGeometry relative="1" as="geometry" />
        </mxCell>
        <mxCell id="gId2gZL5uGRJnGq2d9ph-18" style="edgeStyle=orthogonalEdgeStyle;rounded=0;orthogonalLoop=1;jettySize=auto;html=1;exitX=1;exitY=0.25;exitDx=0;exitDy=0;entryX=0;entryY=0.5;entryDx=0;entryDy=0;" edge="1" parent="1" source="gId2gZL5uGRJnGq2d9ph-10" target="gId2gZL5uGRJnGq2d9ph-13">
          <mxGeometry relative="1" as="geometry" />
        </mxCell>
        <mxCell id="gId2gZL5uGRJnGq2d9ph-19" style="edgeStyle=orthogonalEdgeStyle;rounded=0;orthogonalLoop=1;jettySize=auto;html=1;exitX=1;exitY=0.5;exitDx=0;exitDy=0;entryX=0;entryY=0.5;entryDx=0;entryDy=0;" edge="1" parent="1" source="gId2gZL5uGRJnGq2d9ph-10" target="gId2gZL5uGRJnGq2d9ph-15">
          <mxGeometry relative="1" as="geometry" />
        </mxCell>
        <mxCell id="gId2gZL5uGRJnGq2d9ph-20" style="edgeStyle=orthogonalEdgeStyle;rounded=0;orthogonalLoop=1;jettySize=auto;html=1;exitX=1;exitY=0.75;exitDx=0;exitDy=0;entryX=0;entryY=0.5;entryDx=0;entryDy=0;" edge="1" parent="1" source="gId2gZL5uGRJnGq2d9ph-10" target="gId2gZL5uGRJnGq2d9ph-16">
          <mxGeometry relative="1" as="geometry" />
        </mxCell>
        <mxCell id="gId2gZL5uGRJnGq2d9ph-21" style="edgeStyle=orthogonalEdgeStyle;rounded=0;orthogonalLoop=1;jettySize=auto;html=1;exitX=0.5;exitY=1;exitDx=0;exitDy=0;entryX=0.5;entryY=0;entryDx=0;entryDy=0;" edge="1" parent="1" source="gId2gZL5uGRJnGq2d9ph-10" target="gId2gZL5uGRJnGq2d9ph-17">
          <mxGeometry relative="1" as="geometry" />
        </mxCell>
        <mxCell id="gId2gZL5uGRJnGq2d9ph-10" value="Manager_agent&lt;div&gt;K8S&lt;br&gt;node&lt;/div&gt;" style="rounded=1;whiteSpace=wrap;html=1;" vertex="1" parent="1">
          <mxGeometry x="150" y="280" width="120" height="60" as="geometry" />
        </mxCell>
        <mxCell id="gId2gZL5uGRJnGq2d9ph-27" style="edgeStyle=orthogonalEdgeStyle;rounded=0;orthogonalLoop=1;jettySize=auto;html=1;exitX=0.25;exitY=0;exitDx=0;exitDy=0;entryX=1;entryY=0.25;entryDx=0;entryDy=0;" edge="1" parent="1" source="gId2gZL5uGRJnGq2d9ph-12" target="gId2gZL5uGRJnGq2d9ph-26">
          <mxGeometry relative="1" as="geometry" />
        </mxCell>
        <mxCell id="gId2gZL5uGRJnGq2d9ph-12" value="Bedrock" style="rounded=1;whiteSpace=wrap;html=1;" vertex="1" parent="1">
          <mxGeometry x="680" y="210" width="120" height="60" as="geometry" />
        </mxCell>
        <mxCell id="gId2gZL5uGRJnGq2d9ph-22" style="edgeStyle=orthogonalEdgeStyle;rounded=0;orthogonalLoop=1;jettySize=auto;html=1;exitX=1;exitY=0.75;exitDx=0;exitDy=0;entryX=0;entryY=0.75;entryDx=0;entryDy=0;" edge="1" parent="1" source="gId2gZL5uGRJnGq2d9ph-13" target="gId2gZL5uGRJnGq2d9ph-12">
          <mxGeometry relative="1" as="geometry" />
        </mxCell>
        <mxCell id="gId2gZL5uGRJnGq2d9ph-13" value="DDL&lt;br&gt;pods" style="rounded=1;whiteSpace=wrap;html=1;" vertex="1" parent="1">
          <mxGeometry x="360" y="210" width="120" height="60" as="geometry" />
        </mxCell>
        <mxCell id="gId2gZL5uGRJnGq2d9ph-23" style="edgeStyle=orthogonalEdgeStyle;rounded=0;orthogonalLoop=1;jettySize=auto;html=1;exitX=1;exitY=0.75;exitDx=0;exitDy=0;entryX=0;entryY=1;entryDx=0;entryDy=0;" edge="1" parent="1" source="gId2gZL5uGRJnGq2d9ph-15" target="gId2gZL5uGRJnGq2d9ph-12">
          <mxGeometry relative="1" as="geometry" />
        </mxCell>
        <mxCell id="gId2gZL5uGRJnGq2d9ph-15" value="SP&lt;br&gt;pods" style="rounded=0;whiteSpace=wrap;html=1;" vertex="1" parent="1">
          <mxGeometry x="370" y="300" width="120" height="60" as="geometry" />
        </mxCell>
        <mxCell id="gId2gZL5uGRJnGq2d9ph-24" style="edgeStyle=orthogonalEdgeStyle;rounded=0;orthogonalLoop=1;jettySize=auto;html=1;exitX=1;exitY=0.75;exitDx=0;exitDy=0;entryX=0.5;entryY=1;entryDx=0;entryDy=0;" edge="1" parent="1" source="gId2gZL5uGRJnGq2d9ph-16" target="gId2gZL5uGRJnGq2d9ph-12">
          <mxGeometry relative="1" as="geometry" />
        </mxCell>
        <mxCell id="gId2gZL5uGRJnGq2d9ph-16" value="SQL&lt;br&gt;pods" style="rounded=0;whiteSpace=wrap;html=1;" vertex="1" parent="1">
          <mxGeometry x="365" y="400" width="120" height="60" as="geometry" />
        </mxCell>
        <mxCell id="gId2gZL5uGRJnGq2d9ph-17" value="Test&lt;br&gt;pods" style="rounded=0;whiteSpace=wrap;html=1;" vertex="1" parent="1">
          <mxGeometry x="150" y="420" width="120" height="60" as="geometry" />
        </mxCell>
        <mxCell id="gId2gZL5uGRJnGq2d9ph-25" style="edgeStyle=orthogonalEdgeStyle;rounded=0;orthogonalLoop=1;jettySize=auto;html=1;exitX=0.75;exitY=1;exitDx=0;exitDy=0;entryX=0.825;entryY=1.083;entryDx=0;entryDy=0;entryPerimeter=0;" edge="1" parent="1" source="gId2gZL5uGRJnGq2d9ph-17" target="gId2gZL5uGRJnGq2d9ph-12">
          <mxGeometry relative="1" as="geometry" />
        </mxCell>
        <mxCell id="gId2gZL5uGRJnGq2d9ph-28" style="edgeStyle=orthogonalEdgeStyle;rounded=0;orthogonalLoop=1;jettySize=auto;html=1;exitX=0;exitY=0.75;exitDx=0;exitDy=0;entryX=0.25;entryY=1;entryDx=0;entryDy=0;" edge="1" parent="1" source="gId2gZL5uGRJnGq2d9ph-26" target="gId2gZL5uGRJnGq2d9ph-1">
          <mxGeometry relative="1" as="geometry" />
        </mxCell>
        <mxCell id="gId2gZL5uGRJnGq2d9ph-29" style="edgeStyle=orthogonalEdgeStyle;rounded=0;orthogonalLoop=1;jettySize=auto;html=1;exitX=0.25;exitY=0;exitDx=0;exitDy=0;" edge="1" parent="1" source="gId2gZL5uGRJnGq2d9ph-26" target="gId2gZL5uGRJnGq2d9ph-4">
          <mxGeometry relative="1" as="geometry" />
        </mxCell>
        <mxCell id="gId2gZL5uGRJnGq2d9ph-26" value="User Agent" style="rounded=0;whiteSpace=wrap;html=1;" vertex="1" parent="1">
          <mxGeometry x="520" y="150" width="120" height="60" as="geometry" />
        </mxCell>
      </root>
    </mxGraphModel>
  </diagram>
</mxfile>
